# xmcd CD database file
#
# Track frame offsets:
#	150
#	12591
#	22912
#	35609
#	45586
#	57058
#	65366
#	75598
#	87320
#	98145
#	110533
#	122514
#	130184
#	139606
#	151671
#	162730
#	174860
#	183799
#
# Disc length: 2584 seconds
#
# Revision: 3
# Processed by: cddbd v1.4PL0 Copyright (c) Steve Scherf et al.
# Submitted via: CDex 1.40Beta9
#
DISCID=d90a1612
DTITLE=Johnny Cash - The Legend Of Johnny Cash/ The first Original Hits
DYEAR=2001
DGENRE=Country
TTITLE0=I Walk The Line
TTITLE1=There You Go
TTITLE2=Folsom Prison Blues
TTITLE3=Ballad Of A Teenage Queen
TTITLE4=Big River
TTITLE5=Guess Things Happen That Way
TTITLE6=The Ways Of A Woman In Love
TTITLE7=So Doggone Lonesome
TTITLE8=Train Of Love
TTITLE9=Next In Line
TTITLE10=Home Of The Blues
TTITLE11=Come In Stranger
TTITLE12=Luther Played The Boogie
TTITLE13=You're The Nearest Thing To Haven
TTITLE14=Cry Cry Cry
TTITLE15=Give My Love To Rose
TTITLE16=Katy Too
TTITLE17=Goodbye Little Darling'
EXTD=YEAR: 2001 ID3G: 2
EXTT0=
EXTT1=
EXTT2=
EXTT3=
EXTT4=
EXTT5=
EXTT6=
EXTT7=
EXTT8=
EXTT9=
EXTT10=
EXTT11=
EXTT12=
EXTT13=
EXTT14=
EXTT15=
EXTT16=
EXTT17=
PLAYORDER=
